<svg xmlns="http://www.w3.org/2000/svg" width="880" height="638" viewBox="0 0 880 638">
  <g id="desk" transform="translate(-1094 -339.206)">
    <ellipse id="Ellipse_5" data-name="Ellipse 5" cx="440" cy="98" rx="440" ry="98" transform="translate(1094 781.206)" fill="#f2f2f2" opacity="0.23"/>
    <path id="Path_11" data-name="Path 11" d="M894.984,391.611,852.078,606.582H842.79l-1.022-1.588-2.959-4.6,37.155-200.818,5.64-2.362Z" transform="translate(843 165)" fill="#47465a"/>
    <path id="Path_12" data-name="Path 12" d="M881.6,397.21,841.768,604.994l-2.959-4.6,37.155-200.818Z" transform="translate(843 165)" opacity="0.1"/>
    <path id="Path_13" data-name="Path 13" d="M959.564,684.432l-11.031,3.556-2.681.867-3.539-7.962L881.6,403.96l6.312-1.415,13.261-2.973Z" transform="translate(843 165)" fill="#7f7e8e"/>
    <path id="Path_14" data-name="Path 14" d="M948.533,687.988l-2.681.867-3.539-7.962L881.6,403.96l6.312-1.415Z" transform="translate(843 165)" fill="#7f7e8e" opacity="0.1"/>
    <path id="Path_15" data-name="Path 15" d="M433.636,391.611,423.9,670.277l-11.152,2.477-.791.177-3.1-5.75,6.193-272.917,5.958-.849Z" transform="translate(843 165)" fill="#7f7e8e"/>
    <path id="Path_16" data-name="Path 16" d="M421.016,393.415l-8.263,279.339-.791.177-3.1-5.75,6.193-272.917Z" transform="translate(843 165)" fill="#fff" opacity="0.1"/>
    <path id="Path_17" data-name="Path 17" d="M491.581,768.917l-11.536,1.99-1.292.221-3.538-7.519L419.039,399.572l1.619-.491,8.555-2.6Z" transform="translate(843 165)" fill="#7f7e8e"/>
    <path id="Path_18" data-name="Path 18" d="M480.045,770.907l-1.292.221-3.538-7.519L419.039,399.572l1.619-.491Z" transform="translate(843 165)" opacity="0.1"/>
    <path id="Path_19" data-name="Path 19" d="M770.246,412.949,813.2,467.831a13.928,13.928,0,0,0,12.588,5.249l176.318-20.65a13.928,13.928,0,0,0,12.308-13.833V397.91Z" transform="translate(808.5 121.103)" fill="#d0cde1"/>
    <path id="Path_20" data-name="Path 20" d="M880.388,377.9h11.943v17.237a4.438,4.438,0,0,1-4.438,4.438h-3.068a4.438,4.438,0,0,1-4.438-4.438V377.9Z" transform="translate(843 165)" fill="#47465a"/>
    <path id="Path_21" data-name="Path 21" d="M453.539,447.893l42.951,54.882a13.928,13.928,0,0,0,12.588,5.249L685.4,487.375A13.928,13.928,0,0,0,697.7,473.541V432.853Z" transform="translate(808.5 121.103)" fill="#d0cde1"/>
    <path id="Path_22" data-name="Path 22" d="M563.68,412.842h11.943v17.237a4.437,4.437,0,0,1-4.438,4.438h-3.067a4.438,4.438,0,0,1-4.438-4.438V412.842Z" transform="translate(843 165)" fill="#47465a"/>
    <path id="Path_23" data-name="Path 23" d="M502.885,475.688l524.459-61.09a7.713,7.713,0,0,0,2.577-14.549L936.1,352.867a108.586,108.586,0,0,0-59.8-11.017L410.361,389.36a8.918,8.918,0,0,0-5.459,15.095l54.259,55.668a52.673,52.673,0,0,0,43.724,15.565Z" transform="translate(808.5 121.103)" fill="#1e2529"/>
    <path id="Path_24" data-name="Path 24" d="M1085.04,406.318l-5.61-3.1s-6.056,4.458-10.99,23.24,9.221.2,9.221.2l6.193-12.828Z" transform="translate(808.5 121.103)" fill="#47465a"/>
    <path id="Path_25" data-name="Path 25" d="M1025.03,578.38s-5.75,26.982-8.4,34.5c-1.3,3.68-7.582,7.046-14.544,9.621a97.381,97.381,0,0,1-19.073,4.976c-7.52.885-103.947-14.154-150.834-24.328-31.587-6.852-35.669-14.712-34.971-19.109a6.38,6.38,0,0,1,1.8-3.45s46.445-31.405,62.811-46.445,48.656-3.1,84.042,3.1S1025.03,578.38,1025.03,578.38Z" transform="translate(808.5 121.103)" fill="#47465a"/>
    <path id="Path_26" data-name="Path 26" d="M1079.43,403.217s21.674,14.155-51.31,43.348c0,0-39.669,22.367-34.505,114.5a25.268,25.268,0,0,0,3.673,11.7c7.53,12.385,23.666,43.737-3.227,47.63v7.078s48.656-24.328,53.964-45.117,23-136.237,31.848-146.853S1094.47,408.083,1079.43,403.217Z" transform="translate(808.5 121.103)" fill="#47465a"/>
    <path id="Path_27" data-name="Path 27" d="M1002.08,622.5a97.377,97.377,0,0,1-19.073,4.976c-7.52.885-103.947-14.154-150.834-24.328C800.586,596.3,796.5,588.438,797.2,584.042c20.763,7.1,88.183,29.632,112.378,31.494,28.751,2.212,83.68,8.36,87.842,4.18C999.023,618.1,1000.66,619.8,1002.08,622.5Z" transform="translate(808.5 121.103)" opacity="0.1"/>
    <path id="Path_28" data-name="Path 28" d="M749.457,806.621,791.478,614.65s7.52-20.347,24.77-19.463l15.923,7.963s-26.54-6.193-32.29,14.154-42.463,189.316-42.463,189.316Z" transform="translate(808.5 121.103)" fill="#47465a"/>
    <path id="Path_29" data-name="Path 29" d="M815.808,675.143l16.808-117.217h7.52L822.885,675.143Z" transform="translate(843 165)" fill="#47465a"/>
    <path id="Path_30" data-name="Path 30" d="M1011.32,833.6,995.4,650.479s0-15.482,7.962-23,33.665-28.97,33.665-28.97,6.587-1.551,11.895,13.489,42.021,165.431,42.021,165.431l-7.077,3.1L1038.3,607.131l-31.405,29.636s-6.193,11.058-3.1,21.232,14.6,175.6,14.6,175.6Z" transform="translate(808.5 121.103)" fill="#47465a"/>
    <path id="Path_31" data-name="Path 31" d="M927.717,579.158l39.809,11.5,8.847-8.4-23-3.1Z" transform="translate(843 165)" fill="#47465a"/>
    <path id="Path_32" data-name="Path 32" d="M608.313,300.2l6.455,96.824,141.1-13.712-5.615-94.649a9.519,9.519,0,0,0-10.3-8.922L617.013,290.082a9.52,9.52,0,0,0-8.7,10.119Z" transform="translate(808.5 121.103)" fill="#65646d"/>
    <path id="Path_33" data-name="Path 33" d="M768.7,367.282,628.039,382.627l-5.308.579-41.136-26.539v-5.751L721.37,338.328Z" transform="translate(843 165)" fill="#65646d"/>
    <path id="Path_34" data-name="Path 34" d="M628.039,382.627l-5.308.579-41.136-26.539v-5.149Z" transform="translate(843 165)" opacity="0.1"/>
    <path id="Path_35" data-name="Path 35" d="M583.364,255.373l4.866,86.254,123.852-11.5-4.424-84.043Z" transform="translate(843 165)" fill="#d0cde1"/>
    <path id="Path_36" data-name="Path 36" d="M657.233,365.513l15.039,10.174,45.56-4.424-15.482-9.731Z" transform="translate(843 165)" opacity="0.1"/>
    <path id="Path_37" data-name="Path 37" d="M595.749,353.128l19.02,14.154,121.641-11.5-21.674-14.155Z" transform="translate(843 165)" fill="#d0cde1"/>
    <rect id="Rectangle_18" data-name="Rectangle 18" width="89.793" height="89.793" transform="translate(1654.605 387.42)" fill="#ff6584"/>
    <rect id="Rectangle_19" data-name="Rectangle 19" width="89.793" height="89.793" transform="translate(1654.605 387.42)" opacity="0.1"/>
    <path id="Path_38" data-name="Path 38" d="M877.029,307.871s12.667,34.306,0,40.639,45.389,0,45.389,0l16.361-13.195s-36.945-10.556-31.667-34.834S877.029,307.871,877.029,307.871Z" transform="translate(808.5 121.103)" fill="#fbbebe"/>
    <path id="Path_39" data-name="Path 39" d="M877.029,307.871s12.667,34.306,0,40.639,45.389,0,45.389,0l16.361-13.195s-36.945-10.556-31.667-34.834S877.029,307.871,877.029,307.871Z" transform="translate(808.5 121.103)" opacity="0.1"/>
    <path id="Path_40" data-name="Path 40" d="M773.056,651.986s47.5,67.029,39.584,85.5-3.694,30.084-19.528,36.417-20.056,17.945-6.333,17.417,31.667-4.222,34.306-8.972,8.972-27.445,17.945-30.612,25.861-15.306,13.722-30.084-42.725-69.211-40.363-74.717S773.056,651.986,773.056,651.986Z" transform="translate(808.5 121.103)" fill="#fbbebe"/>
    <path id="Path_41" data-name="Path 41" d="M872.279,519.512s-98.168,6.333-123.5,30.084,22.167,112.418,27.445,113.474,46.445-3.167,44.862-14.778-29.556-59.112-29.556-59.112S827.946,575.985,848,572.819s42.223-17.945,42.223-17.945Z" transform="translate(808.5 121.103)" fill="#d0cde1"/>
    <path id="Path_42" data-name="Path 42" d="M827.417,504.734s1.583,58.584,16.361,60.7,0-44.862,0-44.862l-.528-17.945Z" transform="translate(808.5 121.103)" fill="#fbbebe"/>
    <path id="Path_43" data-name="Path 43" d="M872.279,351.149s-27.445-7.917-32.723,13.195-6.861,93.945-6.861,93.945l-9.5,58.056s17.417-5.278,21.111-2.639l22.167-27.973Z" transform="translate(808.5 121.103)" fill="#6c63ff"/>
    <path id="Path_44" data-name="Path 44" d="M872.279,351.149s-27.445-7.917-32.723,13.195-6.861,93.945-6.861,93.945l-9.5,58.056s17.417-5.278,21.111-2.639l22.167-27.973Z" transform="translate(808.5 121.103)" fill="#0b808d" opacity="0.91"/>
    <path id="Path_45" data-name="Path 45" d="M909.779,663.225s18.445,36.261,29.528,35.733,21.639-7.389,26.917,14.25-1.056,15.833,5.278,28.5,7.389,34.834-4.75,40.112-23.222,5.806-23.75,0,10.556-5.806-2.111-26.389-39.584-58.056-50.667-61.751S909.779,663.225,909.779,663.225Z" transform="translate(808.5 121.103)" fill="#fbbebe"/>
    <path id="Path_46" data-name="Path 46" d="M957.78,497.873s38,63.334,13.195,81.807-98.7,53.834-98.7,53.834,39.584,26.917,41.695,35.889-19,33.25-26.389,33.778-29.028-24.278-52.251-30.612-37.473-51.723-12.139-68.612S872.279,559.1,872.279,559.1l-7.385-40.634Z" transform="translate(808.5 121.103)" fill="#d0cde1"/>
    <path id="Path_47" data-name="Path 47" d="M924.84,286.664c0,22.444-22.991,41-45.436,41a40.639,40.639,0,1,1,0-81.279C901.849,246.384,924.84,264.219,924.84,286.664Z" transform="translate(808.5 121.103)" fill="#fbbebe"/>
    <path id="Path_48" data-name="Path 48" d="M889.7,345.343s36.417-15.833,36.417-17.945,21.111,4.75,25.861,8.972,7.389,3.694,10.556,12.139S946.7,435.594,946.7,435.594s10.556,60.7,16.361,66.5-46.973,14.25-46.973,14.25-34.834,6.333-40.639,8.972-16.361,6.333-14.25,0,11.083-11.083-4.222-19c0,0,5.278-25.861,0-37.473S827.417,415.01,846.945,384.4s28.5-41.695,28.5-41.695S882.307,348.51,889.7,345.343Z" transform="translate(808.5 121.103)" fill="#0c8f9d"/>
    <path id="Path_49" data-name="Path 49" d="M901.307,489.428s-41.167,18.259-53.57,19.949-49.876,11.19-29.292,19.635,51.723-4.222,51.723-4.222l43.806-18.472Z" transform="translate(808.5 121.103)" fill="#fbbebe"/>
    <path id="Path_50" data-name="Path 50" d="M945.629,343.724s15.2-7.353,19.424,18.508,19,107.668,0,119.807-62.806,31.667-62.806,31.667-25.861-17.417-13.722-23.75,41.167-24.278,45.389-30.612,8.488-77.027,1.1-88.638S945.629,343.724,945.629,343.724Z" transform="translate(808.5 121.103)" opacity="0.1"/>
    <path id="Path_51" data-name="Path 51" d="M944.585,337.427s21.111-1.056,25.334,24.806,19,107.668,0,119.807-62.806,31.667-62.806,31.667-25.861-17.417-13.722-23.75,41.167-24.278,45.389-30.612-3.166-72.307-10.555-83.918S944.585,337.427,944.585,337.427Z" transform="translate(808.5 121.103)" fill="#0c8f9d"/>
    <path id="Path_52" data-name="Path 52" d="M869.394,218.612c-6.479.882-13.429,3.252-16.689,8.92-1.6,2.774-2.111,6.027-3.34,8.982-3.391,8.153-11.628,13.021-17.575,19.548-7.75,8.507-11.6,21.326-7.028,31.887,1.77,4.09,4.644,7.593,6.824,11.479,6.081,10.843,6.405,23.865,6.578,36.3l.34,24.441c.052,3.732.093,7.54-1.03,11.1s-3.633,6.893-7.192,8.017a18.64,18.64,0,0,0,21.708-7.413,19.049,19.049,0,0,1-5.822,16.9c9.676-2.279,17.79-9.316,22.9-17.842s7.482-18.442,8.545-28.326c.562-5.228.76-10.633-.892-15.625-1.163-3.516-3.192-6.668-5.118-9.83-4.966-8.154-9.437-16.826-11.037-26.238s.006-19.738,6.118-27.072A24.455,24.455,0,0,1,886,254.979a21.5,21.5,0,0,1,17.928,10.975c1.412,2.658,3.421,6.26,6.282,5.326a15.531,15.531,0,0,0,1.549-.761c3.19-1.452,6.814,1.413,8.221,4.623,4.437,10.127-3.738,21.181-4.583,32.205-.786,10.255,4.931,19.926,11.765,27.612a90.717,90.717,0,0,0,44.353,27.25,12.449,12.449,0,0,1-6.434-4,84.471,84.471,0,0,0,20.756-1.74c-7.426-5.6-14.9-11.24-21.1-18.171s-11.11-15.316-12.447-24.518c-1.794-12.35,2.805-25.724-2.454-37.041-4.808-10.347-16.732-16.129-21.087-26.674-4.423-10.712-7.291-20.017-19-24.68C896.962,220.3,883.2,216.732,869.394,218.612Z" transform="translate(808.5 121.103)" fill="#ff6584"/>
  </g>
</svg>
