<svg id="js" xmlns="http://www.w3.org/2000/svg" width="363.796" height="512.1" viewBox="0 0 363.796 512.1">
  <path id="Path_58" data-name="Path 58" d="M363.8,489.9H0L34.106,859.387l147.772,41.871,147.772-41.871Z" transform="translate(0 -389.158)" fill="#0a737e"/>
  <path id="Path_59" data-name="Path 59" d="M887.9,637V988.642l120.2-34.054L1037.338,637Z" transform="translate(-706.732 -508.005)" fill="#0c8f9d"/>
  <path id="Path_60" data-name="Path 60" d="M589.281,858.5H404.473L391.6,997.512l.267-.864H548.872l-5.12,58.813-50.094,14.415-50.834-14.641-3.043-35.6H393.636l6.58,71.13,93.442,26.527,93.483-26.527,12.873-139.608H433.386l2.139-46.516h115.61l1.727,26.651h46.557Z" transform="translate(-311.8 -683.34)" fill="#fff"/>
  <path id="Path_61" data-name="Path 61" d="M493.7,858.5H404.473L391.6,997.512l.267-.864H493.7V951.3H439.884l2.139-46.515H493.7Zm-53.816,161.138H393.636l6.58,71.089,93.442,26.486v-47.3l-50.834-14.683Z" transform="translate(-311.506 -683.34)" fill="#ebebeb"/>
  <path id="Path_62" data-name="Path 62" d="M589.611,45.981H557.1v23.34h55.769V0H589.611ZM693.171.37H636.5V24.636c7.568,7.568,11.516,11.207,22.661,22.168H636.5V68.93h56.674V46.845L670.51,24.677h22.661Z" transform="translate(-443.248)" fill="#231f20"/>
</svg>
