<svg xmlns="http://www.w3.org/2000/svg" width="675" height="676" viewBox="0 0 675 676">
  <g id="logo" transform="translate(0)">
    <path id="Path_100" data-name="Path 100" d="M937,450a337.538,337.538,0,0,1-24.514,126.7c-.04.09-.07.17-.11.26v.01a336.654,336.654,0,0,1-42.727,75.64q-5.047,6.75-10.414,13.22c-1.308,1.58-2.636,3.15-3.964,4.7q-10.26,11.925-21.588,22.85-2.636,2.55-5.332,5.04c-.419.39-.839.77-1.258,1.16a337.443,337.443,0,0,1-27.609,22.7q-9.661,7.155-19.831,13.59-2.232,1.425-4.493,2.8-3.924,2.4-7.918,4.69-5.212,3-10.554,5.81c-1.438.77-2.886,1.51-4.334,2.25-2.117,1.09-4.244,2.14-6.391,3.17-.369.18-.739.36-1.108.53-1.4.68-2.816,1.34-4.234,2a334.068,334.068,0,0,1-57.375,20.39c-.11.03-.21.05-.32.08-1.288.33-2.586.65-3.884.96-.969.24-1.947.47-2.926.69a2.487,2.487,0,0,1-.369.09c-2.007.47-4.014.92-6.041,1.33-1.138.24-2.277.48-3.415.71-.689.15-1.388.28-2.077.41-.869.17-1.727.33-2.6.5-.479.1-.959.18-1.448.26-1.1.2-2.2.4-3.285.59-1.857.32-3.734.63-5.6.91-1.358.21-2.706.41-4.064.6-1.6.23-3.2.44-4.8.64-.439.07-.879.12-1.318.17l-1.708.21c-1.148.14-2.3.27-3.455.39-.6.07-1.188.13-1.787.19q-1.708.18-3.415.33c-1.468.14-2.936.26-4.413.38-1.8.14-3.585.27-5.392.38-1.158.07-2.317.14-3.485.2-2.976.16-5.951.27-8.947.35-1.488.04-2.986.07-4.483.09h-.03c-1.488.02-2.986.03-4.483.03a338.163,338.163,0,0,1-45.383-3.04q-16.551-2.22-32.572-6.02c-.429-.1-.859-.2-1.278-.31-1.078-.25-2.147-.52-3.215-.79-.949-.24-1.887-.49-2.836-.74a334.56,334.56,0,0,1-70.5-27.19c-.11-.06-.23-.12-.34-.18-.649-.34-1.288-.67-1.927-1.02q-2.112-1.11-4.2-2.26-11.907-6.555-23.206-14.02-2.906-1.905-5.751-3.87c-.609-.42-1.208-.84-1.807-1.26-.629-.44-1.258-.88-1.877-1.32q-2.471-1.755-4.913-3.55-10.11-7.44-19.621-15.61A339.564,339.564,0,0,1,321,640.97q-8.762-12.78-16.356-26.38A336.781,336.781,0,0,1,262,450c0-186.67,151.106-338,337.5-338S937,263.33,937,450Z" transform="translate(-262 -112)" fill="#0c8f9d"/>
    <path id="Path_101" data-name="Path 101" d="M654.35,778.63c1.08-.25,2.15-.52,3.22-.79.95-.24,1.89-.49,2.84-.74.05-1.99.12-4.18.19-6.55.59-18.56,1.98-48.44,5.26-84.44q.27-2.895.54-5.83c1.17-12.2,2.54-25.03,4.18-38.33.05-.44.11-.87.16-1.31,1.33-10.78,2.84-21.85,4.54-33.13q1.785-11.835,3.86-23.93c.1-.56.2-1.13.3-1.69.4-2.33.81-4.65,1.23-6.99,1.17-6.51,2.42-13.06,3.73-19.61,4.61-23.04,10.1-46.22,16.65-68.77a550.908,550.908,0,0,1,24.53-68.61,338.794,338.794,0,0,1,26.74-49.83c.15-.23.3-.45.45-.68,13.15-19.81,28.18-36.62,45.34-49.19l-3.56-4.86q-24.66,18.075-45.24,48.1c-.07.1-.13.19-.2.29A327.451,327.451,0,0,0,722.19,410a527.4,527.4,0,0,0-25.68,69.37q-9.84,33.03-17.65,71.57-2.745,13.575-5.24,27.82c-.28,1.62-.56,3.24-.84,4.87,0,.02-.01.05-.01.07-.43,2.5-.84,5-1.26,7.53q-1.56,9.555-2.94,18.96-2.13,14.49-3.85,28.48-.57,4.62-1.1,9.17-.75,6.42-1.42,12.67-.945,8.7-1.73,17.03l-.15,1.53c-.08.88-.16,1.76-.24,2.63C656.02,725.49,654.75,760.86,654.35,778.63Z" transform="translate(-262.738 -112)" opacity="0.2"/>
    <path id="Path_102" data-name="Path 102" d="M731.01,749.91c.11-.06.23-.12.34-.18,2.06-1.07,4.1-2.16,6.14-3.28.67-7.98,1.57-16.75,2.75-25.97.25-1.9.5-3.83.78-5.77.14-1.04.29-2.09.44-3.15,1.18-8.12,2.58-16.5,4.26-24.92,6.83-34.36,18.17-69.48,37-91.16,1.01-1.17,2.04-2.29,3.11-3.38a67.669,67.669,0,0,1,8.61-7.55l-3.56-4.85a77.072,77.072,0,0,0-11.8,10.79q-1.875,2.085-3.66,4.34c-17.33,21.81-28.15,54.1-34.89,86.07-1.76,8.34-3.24,16.67-4.5,24.78q-.48,3.18-.92,6.3C733.16,725.72,731.87,738.7,731.01,749.91Z" transform="translate(-262.766 -112)" opacity="0.2"/>
    <circle id="Ellipse_104" data-name="Ellipse 104" cx="30.089" cy="30.089" r="30.089" transform="translate(538.649 145.893)" opacity="0.2"/>
    <circle id="Ellipse_105" data-name="Ellipse 105" cx="30.089" cy="30.089" r="30.089" transform="translate(528.96 404.902)" opacity="0.2"/>
    <path id="Path_103" data-name="Path 103" d="M712.286,338.521c6.38,36-7.7,68.592-7.7,68.592s-24.43-25.768-30.81-61.766,7.7-68.592,7.7-68.592S705.905,302.524,712.286,338.521Z" transform="translate(-262.647 -112)" opacity="0.2"/>
    <path id="Path_104" data-name="Path 104" d="M812.282,423.971c-34.335,12.555-68.837,4.5-68.837,4.5s21.166-28.413,55.5-40.968,68.837-4.5,68.837-4.5S846.617,411.416,812.282,423.971Z" transform="translate(-263.001 -112)" opacity="0.2"/>
    <path id="Path_105" data-name="Path 105" d="M818.1,653.333c-24.066,8.8-48.283,3.059-48.283,3.059s14.8-20.008,38.868-28.808,48.283-3.059,48.283-3.059S842.171,644.533,818.1,653.333Z" transform="translate(-263.001 -112)" opacity="0.2"/>
    <path id="Path_106" data-name="Path 106" d="M701.96,648.27l1.22.63C703.06,650.2,702.77,651,701.96,648.27Z" transform="translate(-262.652 -112)" fill="#2f2e41"/>
    <path id="Path_107" data-name="Path 107" d="M703.57,648.69c.01.14.03.29.04.43l-.43-.22c.01-.13.02-.27.04-.41C703.32,646.74,703.2,644.67,703.57,648.69Z" transform="translate(-262.653 -112)" fill="#2f2e41"/>
    <circle id="Ellipse_106" data-name="Ellipse 106" cx="164.209" cy="164.209" r="164.209" transform="translate(147.049 160.432)" fill="#2f2e41"/>
    <circle id="Ellipse_107" data-name="Ellipse 107" cx="99.444" cy="99.444" r="99.444" transform="translate(225.282 283.269)" fill="#d0cde1"/>
    <path id="Path_108" data-name="Path 108" d="M814.27,685.31l-.12.03-23.13,5.55-48.16,11.56-6.57,1.58L663.05,721.6l-6.22,1.5L479.14,765.74a333.659,333.659,0,0,1-35.15-15.83c-.11-.06-.23-.12-.34-.18-.65-.34-1.29-.67-1.93-1.02q-2.115-1.11-4.21-2.26-11.925-6.555-23.24-14.02-2.91-1.905-5.76-3.87c-.61-.42-1.21-.84-1.81-1.26-.63-.44-1.26-.88-1.88-1.32q-2.475-1.755-4.92-3.55c17.26-31.37,58.36-52.22,99.46-63.63,31.02-8.62,37.84-36.95,37.25-62.16a146.953,146.953,0,0,0-1.46-17.18,167.476,167.476,0,0,0-5.96-26.74l99.45,3.32,10.26,23.64a53.487,53.487,0,0,0-.27,7.82c.78,19.39,12.75,31.93,27.52,40.02,1.92,1.05,3.89,2.03,5.89,2.94,24.22,11.01,52.73,11.76,52.73,11.76a101.52,101.52,0,0,1,26.09.49q3.15.48,6.12,1.15a88.139,88.139,0,0,1,32.11,14.37,91.607,91.607,0,0,1,10.41,8.63A82.678,82.678,0,0,1,814.27,685.31Z" transform="translate(-262.527 -112)" fill="#d0cde1"/>
    <path id="Path_109" data-name="Path 109" d="M829.19,698.42c-.42.39-.84.77-1.26,1.16a337.832,337.832,0,0,1-27.65,22.7q-9.675,7.155-19.86,13.59-2.235,1.425-4.5,2.8-3.93,2.4-7.93,4.69-5.22,3-10.57,5.81c-1.44.77-2.89,1.51-4.34,2.25-2.12,1.09-4.25,2.14-6.4,3.17-.37.18-.74.36-1.11.53l-4.23-3.51,49.68-60.72,9.99-12.21s3.99,0,13.14,6.66a130.992,130.992,0,0,1,14.3,12.34C828.69,697.93,828.94,698.17,829.19,698.42Z" transform="translate(-262.816 -112)" fill="#d0cde1"/>
    <path id="Path_110" data-name="Path 110" d="M828.49,697.74a11.4,11.4,0,0,1-.56,1.84,337.808,337.808,0,0,1-27.65,22.7,117.951,117.951,0,0,1-25.79,6.13s.75,3.76,1.43,10.26q-3.93,2.4-7.93,4.69-5.22,3-10.57,5.81c-1.44.77-2.89,1.51-4.34,2.25-2.12,1.09-4.25,2.14-6.4,3.17-.37.18-.74.36-1.11.53-1.4.68-2.82,1.34-4.24,2a334.9,334.9,0,0,1-57.46,20.39c-.11.03-.21.05-.32.08-1.29.33-2.59.65-3.89.96-.97.24-1.95.47-2.93.69a2.494,2.494,0,0,1-.37.09c-2.01.47-4.02.92-6.05,1.33-1.14.24-2.28.48-3.42.71-.69.15-1.39.28-2.08.41-.87.17-1.73.33-2.6.5-.48.1-.96.18-1.45.26-1.1.2-2.2.4-3.29.59-1.86.32-3.74.63-5.61.91-1.36.21-2.71.41-4.07.6-1.6.23-3.2.44-4.81.64-.44.07-.88.12-1.32.17l-1.71.21c-1.15.14-2.3.27-3.46.39-.6.07-1.19.13-1.79.19q-1.71.18-3.42.33c-1.47.14-2.94.26-4.42.38-1.8.14-3.59.27-5.4.38-1.16.07-2.32.14-3.49.2-2.98.16-5.96.27-8.96.35-1.49.04-2.99.07-4.49.09h-.03c-1.49.02-2.99.03-4.49.03a339.151,339.151,0,0,1-45.45-3.04q-16.575-2.22-32.62-6.02c-.43-.1-.86-.2-1.28-.31-1.08-.25-2.15-.52-3.22-.79-.95-.24-1.89-.49-2.84-.74a335.353,335.353,0,0,1-70.6-27.19c-.11-.06-.23-.12-.34-.18-.65-.34-1.29-.67-1.93-1.02,54.89-12.79,141.63-32.96,216.9-50.24q3.165-.72,6.29-1.44c27.8-6.38,53.84-12.32,75.87-17.29l6.7-1.5c23.67-5.32,42.05-9.36,52.02-11.38a81.481,81.481,0,0,1,8.14-1.43l20.81,32.25Z" transform="translate(-262.622 -112)" fill="#2f2e41"/>
    <circle id="Ellipse_108" data-name="Ellipse 108" cx="48.913" cy="48.913" r="48.913" transform="translate(112.341 156.938)" fill="#2f2e41"/>
    <circle id="Ellipse_109" data-name="Ellipse 109" cx="48.913" cy="48.913" r="48.913" transform="translate(412.289 142.963)" fill="#2f2e41"/>
    <path id="Path_111" data-name="Path 111" d="M671.51,282.913a48.911,48.911,0,0,1,43.666-48.624,48.913,48.913,0,1,0,.007,97.248A48.912,48.912,0,0,1,671.51,282.913Z" transform="translate(-262.642 -112)" fill="#2f2e41"/>
    <path id="Path_112" data-name="Path 112" d="M368.8,357.416a48.912,48.912,0,0,1-2.836-65.3,48.913,48.913,0,1,0,68.06,69.463,48.912,48.912,0,0,1-65.225-4.167Z" transform="translate(-262 -112)" fill="#2f2e41"/>
    <path id="Path_113" data-name="Path 113" d="M573.683,359.777c-57.887,0-104.814,27.374-104.814,61.142,0,15.109,9.433,28.918,25,39.586l20.178-14.62-5.487,22.9c2.277,1.055,4.6,2.076,7.026,3.02l30.144-35.168v43.2a175.958,175.958,0,0,0,27.951,2.216c57.887,0,104.814-27.374,104.814-61.142S631.57,359.777,573.683,359.777Z" transform="translate(-262.444 -112)" fill="#2f2e41"/>
    <path id="Path_114" data-name="Path 114" d="M675,303.876s-7.6,34.938,39.874,48.913Z" transform="translate(-262.649 -112)" fill="#2f2e41"/>
    <path id="Path_115" data-name="Path 115" d="M468.869,310.235s17.469,39.06-34.938,56.53Z" transform="translate(-262.27 -112)" fill="#2f2e41"/>
    <ellipse id="Ellipse_110" data-name="Ellipse 110" cx="8.287" cy="19.889" rx="8.287" ry="19.889" transform="translate(213.741 385.686) rotate(-15.639)" fill="#d0cde1"/>
    <ellipse id="Ellipse_111" data-name="Ellipse 111" cx="19.889" cy="8.287" rx="19.889" ry="8.287" transform="translate(416.173 405.368) rotate(-86.476)" fill="#d0cde1"/>
  </g>
</svg>
